<svg xmlns="http://www.w3.org/2000/svg" xmlns:xlink="http://www.w3.org/1999/xlink" contentStyleType="text/css" data-diagram-type="CLASS" height="1074px" preserveAspectRatio="none" style="width:2120px;height:1074px;background:#FFFFFF;" version="1.1" viewBox="0 0 2120 1074" width="2120px" zoomAndPan="magnify"><defs/><g><!--class Main--><g class="entity" data-entity="Main" data-source-line="6" data-uid="ent0002" id="entity_Main"><rect fill="#F1F1F1" height="64.2969" rx="2.5" ry="2.5" style="stroke:#181818;stroke-width:0.5;" width="200.8154" x="1205.11" y="155.74"/><ellipse cx="1284.5573" cy="171.74" fill="#ADD1B2" rx="11" ry="11" style="stroke:#181818;stroke-width:1;"/><path d="M1287.526,177.3806 Q1286.9479,177.6775 1286.3073,177.8181 Q1285.6666,177.9744 1284.9635,177.9744 Q1282.4635,177.9744 1281.1354,176.3337 Q1279.8229,174.6775 1279.8229,171.5525 Q1279.8229,168.4275 1281.1354,166.7712 Q1282.4635,165.115 1284.9635,165.115 Q1285.6666,165.115 1286.3073,165.2712 Q1286.9635,165.4275 1287.526,165.7244 L1287.526,168.4431 Q1286.901,167.865 1286.3073,167.5994 Q1285.7135,167.3181 1285.0885,167.3181 Q1283.7448,167.3181 1283.0573,168.3962 Q1282.3698,169.4587 1282.3698,171.5525 Q1282.3698,173.6462 1283.0573,174.7244 Q1283.7448,175.7869 1285.0885,175.7869 Q1285.7135,175.7869 1286.3073,175.5212 Q1286.901,175.24 1287.526,174.6619 L1287.526,177.3806 Z " fill="#000000"/><text fill="#000000" font-family="sans-serif" font-size="14" lengthAdjust="spacing" textLength="33.4209" x="1305.0573" y="176.5867">Main</text><line style="stroke:#181818;stroke-width:0.5;" x1="1206.11" x2="1404.9254" y1="187.74" y2="187.74"/><line style="stroke:#181818;stroke-width:0.5;" x1="1206.11" x2="1404.9254" y1="195.74" y2="195.74"/><text fill="#000000" font-family="sans-serif" font-size="14" lengthAdjust="spacing" textLength="188.8154" x="1211.11" y="212.7351">+main(args: String[]): void</text></g><!--class Fenetre--><g class="entity" data-entity="Fenetre" data-source-line="10" data-uid="ent0003" id="entity_Fenetre"><rect fill="#F1F1F1" height="64.2969" rx="2.5" ry="2.5" style="stroke:#181818;stroke-width:0.5;" width="268.6895" x="1392.17" y="575.45"/><ellipse cx="1495.2594" cy="591.45" fill="#A9DCDF" rx="11" ry="11" style="stroke:#181818;stroke-width:1;"/><path d="M1495.3687,586.7937 L1494.2125,591.8719 L1496.5406,591.8719 L1495.3687,586.7937 Z M1493.8844,584.5594 L1496.8687,584.5594 L1500.2281,596.95 L1497.775,596.95 L1497.0094,593.8875 L1493.7281,593.8875 L1492.9781,596.95 L1490.5406,596.95 L1493.8844,584.5594 Z " fill="#000000"/><text fill="#000000" font-family="sans-serif" font-size="14" font-style="italic" lengthAdjust="spacing" textLength="54.0107" x="1515.7594" y="596.2967">Fenetre</text><line style="stroke:#181818;stroke-width:0.5;" x1="1393.17" x2="1659.8595" y1="607.45" y2="607.45"/><line style="stroke:#181818;stroke-width:0.5;" x1="1393.17" x2="1659.8595" y1="615.45" y2="615.45"/><text fill="#000000" font-family="sans-serif" font-size="14" lengthAdjust="spacing" textLength="256.6895" x="1398.17" y="632.4451">+creerBouton(texte: String): JButton</text></g><!--class FenetreAccueil--><g class="entity" data-entity="FenetreAccueil" data-source-line="14" data-uid="ent0004" id="entity_FenetreAccueil"><rect fill="#F1F1F1" height="129.4844" rx="2.5" ry="2.5" style="stroke:#181818;stroke-width:0.5;" width="185.8105" x="1229.61" y="288.19"/><ellipse cx="1266.9131" cy="304.19" fill="#ADD1B2" rx="11" ry="11" style="stroke:#181818;stroke-width:1;"/><path d="M1269.8819,309.8306 Q1269.3037,310.1275 1268.6631,310.2681 Q1268.0225,310.4244 1267.3194,310.4244 Q1264.8194,310.4244 1263.4912,308.7837 Q1262.1787,307.1275 1262.1787,304.0025 Q1262.1787,300.8775 1263.4912,299.2212 Q1264.8194,297.565 1267.3194,297.565 Q1268.0225,297.565 1268.6631,297.7212 Q1269.3194,297.8775 1269.8819,298.1744 L1269.8819,300.8931 Q1269.2569,300.315 1268.6631,300.0494 Q1268.0694,299.7681 1267.4444,299.7681 Q1266.1006,299.7681 1265.4131,300.8462 Q1264.7256,301.9087 1264.7256,304.0025 Q1264.7256,306.0962 1265.4131,307.1744 Q1266.1006,308.2369 1267.4444,308.2369 Q1268.0694,308.2369 1268.6631,307.9712 Q1269.2569,307.69 1269.8819,307.1119 L1269.8819,309.8306 Z " fill="#000000"/><text fill="#000000" font-family="sans-serif" font-size="14" lengthAdjust="spacing" textLength="104.248" x="1285.8694" y="309.0367">FenetreAccueil</text><line style="stroke:#181818;stroke-width:0.5;" x1="1230.61" x2="1414.4205" y1="320.19" y2="320.19"/><text fill="#000000" font-family="sans-serif" font-size="14" lengthAdjust="spacing" textLength="159.5166" x="1235.61" y="337.1851">-CHEMIN_LOGO: String</text><text fill="#000000" font-family="sans-serif" font-size="14" lengthAdjust="spacing" textLength="172.8672" x="1235.61" y="353.482">-modeAleatoire: boolean</text><text fill="#000000" font-family="sans-serif" font-size="14" lengthAdjust="spacing" textLength="173.8105" x="1235.61" y="369.7789">-musiqueActive: boolean</text><text fill="#000000" font-family="sans-serif" font-size="14" lengthAdjust="spacing" textLength="147" x="1235.61" y="386.0757">-btnMusique: JButton</text><line style="stroke:#181818;stroke-width:0.5;" x1="1230.61" x2="1414.4205" y1="393.3775" y2="393.3775"/><text fill="#000000" font-family="sans-serif" font-size="14" lengthAdjust="spacing" textLength="126.9023" x="1235.61" y="410.3726">+FenetreAccueil()</text></g><!--class ImageDansTableau--><g class="entity" data-entity="ImageDansTableau" data-source-line="22" data-uid="ent0005" id="entity_ImageDansTableau"><rect fill="#F1F1F1" height="259.8594" rx="2.5" ry="2.5" style="stroke:#181818;stroke-width:0.5;" width="395.9746" x="890.53" y="477.67"/><ellipse cx="1016.5949" cy="493.67" fill="#ADD1B2" rx="11" ry="11" style="stroke:#181818;stroke-width:1;"/><path d="M1019.5637,499.3106 Q1018.9856,499.6075 1018.3449,499.7481 Q1017.7043,499.9044 1017.0012,499.9044 Q1014.5012,499.9044 1013.1731,498.2637 Q1011.8606,496.6075 1011.8606,493.4825 Q1011.8606,490.3575 1013.1731,488.7012 Q1014.5012,487.045 1017.0012,487.045 Q1017.7043,487.045 1018.3449,487.2012 Q1019.0012,487.3575 1019.5637,487.6544 L1019.5637,490.3731 Q1018.9387,489.795 1018.3449,489.5294 Q1017.7512,489.2481 1017.1262,489.2481 Q1015.7824,489.2481 1015.0949,490.3262 Q1014.4074,491.3887 1014.4074,493.4825 Q1014.4074,495.5762 1015.0949,496.6544 Q1015.7824,497.7169 1017.1262,497.7169 Q1017.7512,497.7169 1018.3449,497.4512 Q1018.9387,497.17 1019.5637,496.5919 L1019.5637,499.3106 Z " fill="#000000"/><text fill="#000000" font-family="sans-serif" font-size="14" lengthAdjust="spacing" textLength="135.3447" x="1037.0949" y="498.5167">ImageDansTableau</text><line style="stroke:#181818;stroke-width:0.5;" x1="891.53" x2="1285.5046" y1="509.67" y2="509.67"/><text fill="#000000" font-family="sans-serif" font-size="14" lengthAdjust="spacing" textLength="148.0801" x="896.53" y="526.6651">+grilleTexte: String[]</text><text fill="#000000" font-family="sans-serif" font-size="14" lengthAdjust="spacing" textLength="153.0156" x="896.53" y="542.962">+imageRouge: Image</text><text fill="#000000" font-family="sans-serif" font-size="14" lengthAdjust="spacing" textLength="146.3984" x="896.53" y="559.2589">+imageVerte: Image</text><text fill="#000000" font-family="sans-serif" font-size="14" lengthAdjust="spacing" textLength="147.9434" x="896.53" y="575.5557">+imageBleue: Image</text><text fill="#000000" font-family="sans-serif" font-size="14" lengthAdjust="spacing" textLength="216.7813" x="896.53" y="591.8526">+panneauGrille: PanneauGrille</text><text fill="#000000" font-family="sans-serif" font-size="14" lengthAdjust="spacing" textLength="136.1719" x="896.53" y="608.1495">+labelScore: JLabel</text><text fill="#000000" font-family="sans-serif" font-size="14" lengthAdjust="spacing" textLength="199.6367" x="896.53" y="624.4464">+surbrillanceActuelle: int[][]</text><text fill="#000000" font-family="sans-serif" font-size="14" lengthAdjust="spacing" textLength="98.3418" x="896.53" y="640.7432">+score: Score</text><text fill="#000000" font-family="sans-serif" font-size="14" lengthAdjust="spacing" textLength="173.8105" x="896.53" y="657.0401">-musiqueActive: boolean</text><text fill="#000000" font-family="sans-serif" font-size="14" lengthAdjust="spacing" textLength="155.292" x="896.53" y="673.337">-menuMusique: JMenu</text><line style="stroke:#181818;stroke-width:0.5;" x1="891.53" x2="1285.5046" y1="680.6387" y2="680.6387"/><text fill="#000000" font-family="sans-serif" font-size="14" lengthAdjust="spacing" textLength="157.999" x="896.53" y="697.6339">+ImageDansTableau()</text><text fill="#000000" font-family="sans-serif" font-size="14" lengthAdjust="spacing" textLength="383.9746" x="896.53" y="713.9307">+genererGrilleAleatoire(lignes: int, colonnes: int): void</text><text fill="#000000" font-family="sans-serif" font-size="14" lengthAdjust="spacing" textLength="239.333" x="896.53" y="730.2276">+ouvrirDepuisDialogue(): boolean</text></g><!--class PanneauGrille--><g class="entity" data-entity="PanneauGrille" data-source-line="38" data-uid="ent0006" id="entity_PanneauGrille"><rect fill="#F1F1F1" height="64.2969" rx="2.5" ry="2.5" style="stroke:#181818;stroke-width:0.5;" width="270.3232" x="323.35" y="830.13"/><ellipse cx="405.4018" cy="846.13" fill="#ADD1B2" rx="11" ry="11" style="stroke:#181818;stroke-width:1;"/><path d="M408.3705,851.7706 Q407.7924,852.0675 407.1518,852.2081 Q406.5111,852.3644 405.808,852.3644 Q403.308,852.3644 401.9799,850.7237 Q400.6674,849.0675 400.6674,845.9425 Q400.6674,842.8175 401.9799,841.1612 Q403.308,839.505 405.808,839.505 Q406.5111,839.505 407.1518,839.6612 Q407.808,839.8175 408.3705,840.1144 L408.3705,842.8331 Q407.7455,842.255 407.1518,841.9894 Q406.558,841.7081 405.933,841.7081 Q404.5893,841.7081 403.9018,842.7862 Q403.2143,843.8487 403.2143,845.9425 Q403.2143,848.0362 403.9018,849.1144 Q404.5893,850.1769 405.933,850.1769 Q406.558,850.1769 407.1518,849.9112 Q407.7455,849.63 408.3705,849.0519 L408.3705,851.7706 Z " fill="#000000"/><text fill="#000000" font-family="sans-serif" font-size="14" lengthAdjust="spacing" textLength="97.7197" x="425.9018" y="850.9767">PanneauGrille</text><line style="stroke:#181818;stroke-width:0.5;" x1="324.35" x2="592.6732" y1="862.13" y2="862.13"/><line style="stroke:#181818;stroke-width:0.5;" x1="324.35" x2="592.6732" y1="870.13" y2="870.13"/><text fill="#000000" font-family="sans-serif" font-size="14" lengthAdjust="spacing" textLength="258.3232" x="329.35" y="887.1251">+paintComponent(g: Graphics): void</text></g><!--class Score--><g class="entity" data-entity="Score" data-source-line="42" data-uid="ent0007" id="entity_Score"><rect fill="#F1F1F1" height="129.4844" rx="2.5" ry="2.5" style="stroke:#181818;stroke-width:0.5;" width="227.5371" x="628.75" y="797.53"/><ellipse cx="718.5093" cy="813.53" fill="#ADD1B2" rx="11" ry="11" style="stroke:#181818;stroke-width:1;"/><path d="M721.478,819.1706 Q720.8999,819.4675 720.2593,819.6081 Q719.6187,819.7644 718.9155,819.7644 Q716.4155,819.7644 715.0874,818.1238 Q713.7749,816.4675 713.7749,813.3425 Q713.7749,810.2175 715.0874,808.5613 Q716.4155,806.905 718.9155,806.905 Q719.6187,806.905 720.2593,807.0613 Q720.9155,807.2175 721.478,807.5144 L721.478,810.2331 Q720.853,809.655 720.2593,809.3894 Q719.6655,809.1081 719.0405,809.1081 Q717.6968,809.1081 717.0093,810.1863 Q716.3218,811.2488 716.3218,813.3425 Q716.3218,815.4363 717.0093,816.5144 Q717.6968,817.5769 719.0405,817.5769 Q719.6655,817.5769 720.2593,817.3113 Q720.853,817.03 721.478,816.4519 L721.478,819.1706 Z " fill="#000000"/><text fill="#000000" font-family="sans-serif" font-size="14" lengthAdjust="spacing" textLength="39.5186" x="739.0093" y="818.3767">Score</text><line style="stroke:#181818;stroke-width:0.5;" x1="629.75" x2="855.2871" y1="829.53" y2="829.53"/><text fill="#000000" font-family="sans-serif" font-size="14" lengthAdjust="spacing" textLength="76.4668" x="634.75" y="846.5251">-valeur: int</text><line style="stroke:#181818;stroke-width:0.5;" x1="629.75" x2="855.2871" y1="853.8269" y2="853.8269"/><text fill="#000000" font-family="sans-serif" font-size="14" lengthAdjust="spacing" textLength="62.1729" x="634.75" y="870.822">+Score()</text><text fill="#000000" font-family="sans-serif" font-size="14" lengthAdjust="spacing" textLength="118.3506" x="634.75" y="887.1189">+getValeur(): int</text><text fill="#000000" font-family="sans-serif" font-size="14" lengthAdjust="spacing" textLength="215.5371" x="634.75" y="903.4157">+ajouterPoints(taille: int): void</text><text fill="#000000" font-family="sans-serif" font-size="14" lengthAdjust="spacing" textLength="97.2139" x="634.75" y="919.7126">+reset(): void</text></g><!--class Son--><g class="entity" data-entity="Son" data-source-line="50" data-uid="ent0008" id="entity_Son"><rect fill="#F1F1F1" height="96.8906" rx="2.5" ry="2.5" style="stroke:#181818;stroke-width:0.5;" width="211.6777" x="1436.68" y="813.83"/><ellipse cx="1525.1063" cy="829.83" fill="#ADD1B2" rx="11" ry="11" style="stroke:#181818;stroke-width:1;"/><path d="M1528.075,835.4706 Q1527.4969,835.7675 1526.8563,835.9081 Q1526.2156,836.0644 1525.5125,836.0644 Q1523.0125,836.0644 1521.6844,834.4237 Q1520.3719,832.7675 1520.3719,829.6425 Q1520.3719,826.5175 1521.6844,824.8612 Q1523.0125,823.205 1525.5125,823.205 Q1526.2156,823.205 1526.8563,823.3612 Q1527.5125,823.5175 1528.075,823.8144 L1528.075,826.5331 Q1527.45,825.955 1526.8563,825.6894 Q1526.2625,825.4081 1525.6375,825.4081 Q1524.2938,825.4081 1523.6063,826.4862 Q1522.9188,827.5487 1522.9188,829.6425 Q1522.9188,831.7362 1523.6063,832.8144 Q1524.2938,833.8769 1525.6375,833.8769 Q1526.2625,833.8769 1526.8563,833.6112 Q1527.45,833.33 1528.075,832.7519 L1528.075,835.4706 Z " fill="#000000"/><text fill="#000000" font-family="sans-serif" font-size="14" lengthAdjust="spacing" textLength="26.3252" x="1545.6063" y="834.6767">Son</text><line style="stroke:#181818;stroke-width:0.5;" x1="1437.68" x2="1647.3577" y1="845.83" y2="845.83"/><text fill="#000000" font-family="sans-serif" font-size="14" lengthAdjust="spacing" textLength="65.0234" x="1442.68" y="862.8251">-clip: Clip</text><line style="stroke:#181818;stroke-width:0.5;" x1="1437.68" x2="1647.3577" y1="870.1269" y2="870.1269"/><text fill="#000000" font-family="sans-serif" font-size="14" lengthAdjust="spacing" textLength="199.6777" x="1442.68" y="887.122">+jouer(chemin: String): void</text><text fill="#000000" font-family="sans-serif" font-size="14" lengthAdjust="spacing" textLength="91.6836" x="1442.68" y="903.4189">+stop(): void</text></g><!--class Surbrillance--><g class="entity" data-entity="Surbrillance" data-source-line="56" data-uid="ent0009" id="entity_Surbrillance"><rect fill="#F1F1F1" height="64.2969" rx="2.5" ry="2.5" style="stroke:#181818;stroke-width:0.5;" width="430.1953" x="1683.42" y="830.13"/><ellipse cx="1852.4727" cy="846.13" fill="#ADD1B2" rx="11" ry="11" style="stroke:#181818;stroke-width:1;"/><path d="M1855.4415,851.7706 Q1854.8634,852.0675 1854.2227,852.2081 Q1853.5821,852.3644 1852.879,852.3644 Q1850.379,852.3644 1849.0509,850.7237 Q1847.7384,849.0675 1847.7384,845.9425 Q1847.7384,842.8175 1849.0509,841.1612 Q1850.379,839.505 1852.879,839.505 Q1853.5821,839.505 1854.2227,839.6612 Q1854.879,839.8175 1855.4415,840.1144 L1855.4415,842.8331 Q1854.8165,842.255 1854.2227,841.9894 Q1853.629,841.7081 1853.004,841.7081 Q1851.6602,841.7081 1850.9727,842.7862 Q1850.2852,843.8487 1850.2852,845.9425 Q1850.2852,848.0362 1850.9727,849.1144 Q1851.6602,850.1769 1853.004,850.1769 Q1853.629,850.1769 1854.2227,849.9112 Q1854.8165,849.63 1855.4415,849.0519 L1855.4415,851.7706 Z " fill="#000000"/><text fill="#000000" font-family="sans-serif" font-size="14" lengthAdjust="spacing" textLength="83.5898" x="1872.9727" y="850.9767">Surbrillance</text><line style="stroke:#181818;stroke-width:0.5;" x1="1684.42" x2="2112.6153" y1="862.13" y2="862.13"/><line style="stroke:#181818;stroke-width:0.5;" x1="1684.42" x2="2112.6153" y1="870.13" y2="870.13"/><text fill="#000000" font-family="sans-serif" font-size="14" lengthAdjust="spacing" textLength="418.1953" x="1689.42" y="887.1251">+chercherGroupes(grilleTexte: String[], x: int, y: int): int[][]</text></g><!--class FinPartie--><g class="entity" data-entity="FinPartie" data-source-line="60" data-uid="ent0010" id="entity_FinPartie"><rect fill="#F1F1F1" height="64.2969" rx="2.5" ry="2.5" style="stroke:#181818;stroke-width:0.5;" width="281.0283" x="7" y="830.13"/><ellipse cx="112.4717" cy="846.13" fill="#ADD1B2" rx="11" ry="11" style="stroke:#181818;stroke-width:1;"/><path d="M115.4404,851.7706 Q114.8623,852.0675 114.2217,852.2081 Q113.5811,852.3644 112.8779,852.3644 Q110.3779,852.3644 109.0498,850.7237 Q107.7373,849.0675 107.7373,845.9425 Q107.7373,842.8175 109.0498,841.1612 Q110.3779,839.505 112.8779,839.505 Q113.5811,839.505 114.2217,839.6612 Q114.8779,839.8175 115.4404,840.1144 L115.4404,842.8331 Q114.8154,842.255 114.2217,841.9894 Q113.6279,841.7081 113.0029,841.7081 Q111.6592,841.7081 110.9717,842.7862 Q110.2842,843.8487 110.2842,845.9425 Q110.2842,848.0362 110.9717,849.1144 Q111.6592,850.1769 113.0029,850.1769 Q113.6279,850.1769 114.2217,849.9112 Q114.8154,849.63 115.4404,849.0519 L115.4404,851.7706 Z " fill="#000000"/><text fill="#000000" font-family="sans-serif" font-size="14" lengthAdjust="spacing" textLength="61.585" x="132.9717" y="850.9767">FinPartie</text><line style="stroke:#181818;stroke-width:0.5;" x1="8" x2="287.0283" y1="862.13" y2="862.13"/><line style="stroke:#181818;stroke-width:0.5;" x1="8" x2="287.0283" y1="870.13" y2="870.13"/><text fill="#000000" font-family="sans-serif" font-size="14" lengthAdjust="spacing" textLength="269.0283" x="13" y="887.1251">+plusDeCoup(grille: String[]): boolean</text></g><!--class FenetreFin--><g class="entity" data-entity="FenetreFin" data-source-line="64" data-uid="ent0011" id="entity_FenetreFin"><rect fill="#F1F1F1" height="80.5938" rx="2.5" ry="2.5" style="stroke:#181818;stroke-width:0.5;" width="208.1094" x="1609.46" y="147.59"/><ellipse cx="1671.8516" cy="163.59" fill="#ADD1B2" rx="11" ry="11" style="stroke:#181818;stroke-width:1;"/><path d="M1674.8204,169.2306 Q1674.2422,169.5275 1673.6016,169.6681 Q1672.961,169.8244 1672.2579,169.8244 Q1669.7579,169.8244 1668.4297,168.1837 Q1667.1172,166.5275 1667.1172,163.4025 Q1667.1172,160.2775 1668.4297,158.6212 Q1669.7579,156.965 1672.2579,156.965 Q1672.961,156.965 1673.6016,157.1212 Q1674.2579,157.2775 1674.8204,157.5744 L1674.8204,160.2931 Q1674.1954,159.715 1673.6016,159.4494 Q1673.0079,159.1681 1672.3829,159.1681 Q1671.0391,159.1681 1670.3516,160.2462 Q1669.6641,161.3087 1669.6641,163.4025 Q1669.6641,165.4962 1670.3516,166.5744 Q1671.0391,167.6369 1672.3829,167.6369 Q1673.0079,167.6369 1673.6016,167.3712 Q1674.1954,167.09 1674.8204,166.5119 L1674.8204,169.2306 Z " fill="#000000"/><text fill="#000000" font-family="sans-serif" font-size="14" lengthAdjust="spacing" textLength="74.8262" x="1692.3516" y="168.4367">FenetreFin</text><line style="stroke:#181818;stroke-width:0.5;" x1="1610.46" x2="1816.5694" y1="179.59" y2="179.59"/><text fill="#000000" font-family="sans-serif" font-size="14" lengthAdjust="spacing" textLength="70.3965" x="1615.46" y="196.5851">-score: int</text><line style="stroke:#181818;stroke-width:0.5;" x1="1610.46" x2="1816.5694" y1="203.8869" y2="203.8869"/><text fill="#000000" font-family="sans-serif" font-size="14" lengthAdjust="spacing" textLength="196.1094" x="1615.46" y="220.882">+FenetreFin(scoreFinal: int)</text></g><!--class Sauvegarde--><g class="entity" data-entity="Sauvegarde" data-source-line="69" data-uid="ent0012" id="entity_Sauvegarde"><rect fill="#F1F1F1" height="80.5938" rx="2.5" ry="2.5" style="stroke:#181818;stroke-width:0.5;" width="395.0791" x="890.97" y="821.98"/><ellipse cx="1042.2801" cy="837.98" fill="#ADD1B2" rx="11" ry="11" style="stroke:#181818;stroke-width:1;"/><path d="M1045.2488,843.6206 Q1044.6707,843.9175 1044.0301,844.0581 Q1043.3894,844.2144 1042.6863,844.2144 Q1040.1863,844.2144 1038.8582,842.5737 Q1037.5457,840.9175 1037.5457,837.7925 Q1037.5457,834.6675 1038.8582,833.0112 Q1040.1863,831.355 1042.6863,831.355 Q1043.3894,831.355 1044.0301,831.5112 Q1044.6863,831.6675 1045.2488,831.9644 L1045.2488,834.6831 Q1044.6238,834.105 1044.0301,833.8394 Q1043.4363,833.5581 1042.8113,833.5581 Q1041.4676,833.5581 1040.7801,834.6362 Q1040.0926,835.6987 1040.0926,837.7925 Q1040.0926,839.8862 1040.7801,840.9644 Q1041.4676,842.0269 1042.8113,842.0269 Q1043.4363,842.0269 1044.0301,841.7612 Q1044.6238,841.48 1045.2488,840.9019 L1045.2488,843.6206 Z " fill="#000000"/><text fill="#000000" font-family="sans-serif" font-size="14" lengthAdjust="spacing" textLength="83.959" x="1062.7801" y="842.8267">Sauvegarde</text><line style="stroke:#181818;stroke-width:0.5;" x1="891.97" x2="1285.0491" y1="853.98" y2="853.98"/><line style="stroke:#181818;stroke-width:0.5;" x1="891.97" x2="1285.0491" y1="861.98" y2="861.98"/><text fill="#000000" font-family="sans-serif" font-size="14" lengthAdjust="spacing" textLength="310.0303" x="896.97" y="878.9751">+enregistrer(grille: String[], score: int): void</text><text fill="#000000" font-family="sans-serif" font-size="14" lengthAdjust="spacing" textLength="383.0791" x="896.97" y="895.272">+chargerDepuisFichier(fichier: File): SauvegardePartie</text></g><!--class SauvegardePartie--><g class="entity" data-entity="SauvegardePartie" data-source-line="74" data-uid="ent0013" id="entity_SauvegardePartie"><rect fill="#F1F1F1" height="80.5938" rx="2.5" ry="2.5" style="stroke:#181818;stroke-width:0.5;" width="156.7285" x="1010.15" y="987.02"/><ellipse cx="1025.15" cy="1003.02" fill="#ADD1B2" rx="11" ry="11" style="stroke:#181818;stroke-width:1;"/><path d="M1028.1188,1008.6606 Q1027.5406,1008.9575 1026.9,1009.0981 Q1026.2594,1009.2544 1025.5563,1009.2544 Q1023.0563,1009.2544 1021.7281,1007.6137 Q1020.4156,1005.9575 1020.4156,1002.8325 Q1020.4156,999.7075 1021.7281,998.0512 Q1023.0563,996.395 1025.5563,996.395 Q1026.2594,996.395 1026.9,996.5512 Q1027.5563,996.7075 1028.1188,997.0044 L1028.1188,999.7231 Q1027.4938,999.145 1026.9,998.8794 Q1026.3063,998.5981 1025.6813,998.5981 Q1024.3375,998.5981 1023.65,999.6762 Q1022.9625,1000.7387 1022.9625,1002.8325 Q1022.9625,1004.9262 1023.65,1006.0044 Q1024.3375,1007.0669 1025.6813,1007.0669 Q1026.3063,1007.0669 1026.9,1006.8012 Q1027.4938,1006.52 1028.1188,1005.9419 L1028.1188,1008.6606 Z " fill="#000000"/><text fill="#000000" font-family="sans-serif" font-size="14" lengthAdjust="spacing" textLength="124.7285" x="1039.15" y="1007.8667">SauvegardePartie</text><line style="stroke:#181818;stroke-width:0.5;" x1="1011.15" x2="1165.8785" y1="1019.02" y2="1019.02"/><text fill="#000000" font-family="sans-serif" font-size="14" lengthAdjust="spacing" textLength="108.5273" x="1016.15" y="1036.0151">+grille: String[]</text><text fill="#000000" font-family="sans-serif" font-size="14" lengthAdjust="spacing" textLength="77.0752" x="1016.15" y="1052.312">+score: int</text><line style="stroke:#181818;stroke-width:0.5;" x1="1011.15" x2="1165.8785" y1="1059.6138" y2="1059.6138"/></g><!--class EcouteurDeSouris--><g class="entity" data-entity="EcouteurDeSouris" data-source-line="79" data-uid="ent0014" id="entity_EcouteurDeSouris"><rect fill="#F1F1F1" height="80.5938" rx="2.5" ry="2.5" style="stroke:#181818;stroke-width:0.5;" width="274.6025" x="1106.21" y="7"/><ellipse cx="1176.5757" cy="23" fill="#ADD1B2" rx="11" ry="11" style="stroke:#181818;stroke-width:1;"/><path d="M1179.5445,28.6406 Q1178.9663,28.9375 1178.3257,29.0781 Q1177.6851,29.2344 1176.982,29.2344 Q1174.482,29.2344 1173.1538,27.5938 Q1171.8413,25.9375 1171.8413,22.8125 Q1171.8413,19.6875 1173.1538,18.0313 Q1174.482,16.375 1176.982,16.375 Q1177.6851,16.375 1178.3257,16.5313 Q1178.982,16.6875 1179.5445,16.9844 L1179.5445,19.7031 Q1178.9195,19.125 1178.3257,18.8594 Q1177.732,18.5781 1177.107,18.5781 Q1175.7632,18.5781 1175.0757,19.6563 Q1174.3882,20.7188 1174.3882,22.8125 Q1174.3882,24.9063 1175.0757,25.9844 Q1175.7632,27.0469 1177.107,27.0469 Q1177.732,27.0469 1178.3257,26.7813 Q1178.9195,26.5 1179.5445,25.9219 L1179.5445,28.6406 Z " fill="#000000"/><text fill="#000000" font-family="sans-serif" font-size="14" lengthAdjust="spacing" textLength="125.3711" x="1197.0757" y="27.8467">EcouteurDeSouris</text><line style="stroke:#181818;stroke-width:0.5;" x1="1107.21" x2="1379.8125" y1="39" y2="39"/><line style="stroke:#181818;stroke-width:0.5;" x1="1107.21" x2="1379.8125" y1="47" y2="47"/><text fill="#000000" font-family="sans-serif" font-size="14" lengthAdjust="spacing" textLength="258.1729" x="1112.21" y="63.9951">+mouseMoved(e: MouseEvent): void</text><text fill="#000000" font-family="sans-serif" font-size="14" lengthAdjust="spacing" textLength="262.6025" x="1112.21" y="80.292">+mouseClicked(e: MouseEvent): void</text></g><!--class CassageBlocks--><g class="entity" data-entity="CassageBlocks" data-source-line="84" data-uid="ent0015" id="entity_CassageBlocks"><rect fill="#F1F1F1" height="64.2969" rx="2.5" ry="2.5" style="stroke:#181818;stroke-width:0.5;" width="378.7207" x="791.15" y="155.74"/><ellipse cx="924.1705" cy="171.74" fill="#ADD1B2" rx="11" ry="11" style="stroke:#181818;stroke-width:1;"/><path d="M927.1393,177.3806 Q926.5611,177.6775 925.9205,177.8181 Q925.2799,177.9744 924.5768,177.9744 Q922.0768,177.9744 920.7486,176.3337 Q919.4361,174.6775 919.4361,171.5525 Q919.4361,168.4275 920.7486,166.7712 Q922.0768,165.115 924.5768,165.115 Q925.2799,165.115 925.9205,165.2712 Q926.5768,165.4275 927.1393,165.7244 L927.1393,168.4431 Q926.5143,167.865 925.9205,167.5994 Q925.3268,167.3181 924.7018,167.3181 Q923.358,167.3181 922.6705,168.3962 Q921.983,169.4587 921.983,171.5525 Q921.983,173.6462 922.6705,174.7244 Q923.358,175.7869 924.7018,175.7869 Q925.3268,175.7869 925.9205,175.5212 Q926.5143,175.24 927.1393,174.6619 L927.1393,177.3806 Z " fill="#000000"/><text fill="#000000" font-family="sans-serif" font-size="14" lengthAdjust="spacing" textLength="104.1797" x="944.6705" y="176.5867">CassageBlocks</text><line style="stroke:#181818;stroke-width:0.5;" x1="792.15" x2="1168.8707" y1="187.74" y2="187.74"/><line style="stroke:#181818;stroke-width:0.5;" x1="792.15" x2="1168.8707" y1="195.74" y2="195.74"/><text fill="#000000" font-family="sans-serif" font-size="14" lengthAdjust="spacing" textLength="366.7207" x="797.15" y="212.7351">+casser(grille: String[], surbrillance: int[][]): String[]</text></g><!--class JPanel--><g class="entity" data-entity="JPanel" data-source-line="92" data-uid="ent0018" id="entity_JPanel"><rect fill="#F1F1F1" height="48" rx="2.5" ry="2.5" style="stroke:#181818;stroke-width:0.5;" width="74.5264" x="421.25" y="1003.31"/><ellipse cx="436.25" cy="1019.31" fill="#ADD1B2" rx="11" ry="11" style="stroke:#181818;stroke-width:1;"/><path d="M439.2188,1024.9506 Q438.6406,1025.2475 438,1025.3881 Q437.3594,1025.5444 436.6563,1025.5444 Q434.1563,1025.5444 432.8281,1023.9038 Q431.5156,1022.2475 431.5156,1019.1225 Q431.5156,1015.9975 432.8281,1014.3413 Q434.1563,1012.685 436.6563,1012.685 Q437.3594,1012.685 438,1012.8413 Q438.6563,1012.9975 439.2188,1013.2944 L439.2188,1016.0131 Q438.5938,1015.435 438,1015.1694 Q437.4063,1014.8881 436.7813,1014.8881 Q435.4375,1014.8881 434.75,1015.9663 Q434.0625,1017.0288 434.0625,1019.1225 Q434.0625,1021.2163 434.75,1022.2944 Q435.4375,1023.3569 436.7813,1023.3569 Q437.4063,1023.3569 438,1023.0913 Q438.5938,1022.81 439.2188,1022.2319 L439.2188,1024.9506 Z " fill="#000000"/><text fill="#000000" font-family="sans-serif" font-size="14" lengthAdjust="spacing" textLength="42.5264" x="450.25" y="1024.1567">JPanel</text><line style="stroke:#181818;stroke-width:0.5;" x1="422.25" x2="494.7764" y1="1035.31" y2="1035.31"/><line style="stroke:#181818;stroke-width:0.5;" x1="422.25" x2="494.7764" y1="1043.31" y2="1043.31"/></g><!--class JFrame--><g class="entity" data-entity="JFrame" data-source-line="93" data-uid="ent0020" id="entity_JFrame"><rect fill="#F1F1F1" height="48" rx="2.5" ry="2.5" style="stroke:#181818;stroke-width:0.5;" width="80.7676" x="1321.13" y="838.27"/><ellipse cx="1336.13" cy="854.27" fill="#ADD1B2" rx="11" ry="11" style="stroke:#181818;stroke-width:1;"/><path d="M1339.0988,859.9106 Q1338.5206,860.2075 1337.88,860.3481 Q1337.2394,860.5044 1336.5363,860.5044 Q1334.0363,860.5044 1332.7081,858.8637 Q1331.3956,857.2075 1331.3956,854.0825 Q1331.3956,850.9575 1332.7081,849.3012 Q1334.0363,847.645 1336.5363,847.645 Q1337.2394,847.645 1337.88,847.8012 Q1338.5363,847.9575 1339.0988,848.2544 L1339.0988,850.9731 Q1338.4738,850.395 1337.88,850.1294 Q1337.2863,849.8481 1336.6613,849.8481 Q1335.3175,849.8481 1334.63,850.9262 Q1333.9425,851.9887 1333.9425,854.0825 Q1333.9425,856.1762 1334.63,857.2544 Q1335.3175,858.3169 1336.6613,858.3169 Q1337.2863,858.3169 1337.88,858.0512 Q1338.4738,857.77 1339.0988,857.1919 L1339.0988,859.9106 Z " fill="#000000"/><text fill="#000000" font-family="sans-serif" font-size="14" lengthAdjust="spacing" textLength="48.7676" x="1350.13" y="859.1167">JFrame</text><line style="stroke:#181818;stroke-width:0.5;" x1="1322.13" x2="1400.8976" y1="870.27" y2="870.27"/><line style="stroke:#181818;stroke-width:0.5;" x1="1322.13" x2="1400.8976" y1="878.27" y2="878.27"/></g><!--class MouseAdapter--><g class="entity" data-entity="MouseAdapter" data-source-line="94" data-uid="ent0022" id="entity_MouseAdapter"><rect fill="#F1F1F1" height="48" rx="2.5" ry="2.5" style="stroke:#181818;stroke-width:0.5;" width="133.2129" x="1440.91" y="163.89"/><ellipse cx="1455.91" cy="179.89" fill="#ADD1B2" rx="11" ry="11" style="stroke:#181818;stroke-width:1;"/><path d="M1458.8788,185.5306 Q1458.3006,185.8275 1457.66,185.9681 Q1457.0194,186.1244 1456.3163,186.1244 Q1453.8163,186.1244 1452.4881,184.4837 Q1451.1756,182.8275 1451.1756,179.7025 Q1451.1756,176.5775 1452.4881,174.9212 Q1453.8163,173.265 1456.3163,173.265 Q1457.0194,173.265 1457.66,173.4212 Q1458.3163,173.5775 1458.8788,173.8744 L1458.8788,176.5931 Q1458.2538,176.015 1457.66,175.7494 Q1457.0663,175.4681 1456.4413,175.4681 Q1455.0975,175.4681 1454.41,176.5462 Q1453.7225,177.6087 1453.7225,179.7025 Q1453.7225,181.7962 1454.41,182.8744 Q1455.0975,183.9369 1456.4413,183.9369 Q1457.0663,183.9369 1457.66,183.6712 Q1458.2538,183.39 1458.8788,182.8119 L1458.8788,185.5306 Z " fill="#000000"/><text fill="#000000" font-family="sans-serif" font-size="14" lengthAdjust="spacing" textLength="101.2129" x="1469.91" y="184.7367">MouseAdapter</text><line style="stroke:#181818;stroke-width:0.5;" x1="1441.91" x2="1573.1229" y1="195.89" y2="195.89"/><line style="stroke:#181818;stroke-width:0.5;" x1="1441.91" x2="1573.1229" y1="203.89" y2="203.89"/></g><!--link FenetreAccueil to Fenetre--><g class="link" data-entity-1="FenetreAccueil" data-entity-2="Fenetre" data-source-line="90" data-uid="lnk16" id="link_FenetreAccueil_Fenetre"><path codeLine="90" d="M1374.26,418.02 C1414.86,468.31 1458.334,522.1438 1489.904,561.2538" fill="none" id="FenetreAccueil-to-Fenetre" style="stroke:#181818;stroke-width:1;"/><polygon fill="none" points="1501.21,575.26,1494.5728,557.4851,1485.2353,565.0224,1501.21,575.26" style="stroke:#181818;stroke-width:1;"/></g><!--link FenetreFin to Fenetre--><g class="link" data-entity-1="FenetreFin" data-entity-2="Fenetre" data-source-line="91" data-uid="lnk17" id="link_FenetreFin_Fenetre"><path codeLine="91" d="M1695.75,228.57 C1658.78,311.14 1581.574,483.6108 1547.994,558.6308" fill="none" id="FenetreFin-to-Fenetre" style="stroke:#181818;stroke-width:1;"/><polygon fill="none" points="1540.64,575.06,1553.4704,561.0821,1542.5175,556.1795,1540.64,575.06" style="stroke:#181818;stroke-width:1;"/></g><!--link PanneauGrille to JPanel--><g class="link" data-entity-1="PanneauGrille" data-entity-2="JPanel" data-source-line="92" data-uid="lnk19" id="link_PanneauGrille_JPanel"><path codeLine="92" d="M458.51,894.71 C458.51,926.36 458.51,956.44 458.51,984.89" fill="none" id="PanneauGrille-to-JPanel" style="stroke:#181818;stroke-width:1;"/><polygon fill="none" points="458.51,1002.89,464.51,984.89,452.51,984.89,458.51,1002.89" style="stroke:#181818;stroke-width:1;"/></g><!--link ImageDansTableau to JFrame--><g class="link" data-entity-1="ImageDansTableau" data-entity-2="JFrame" data-source-line="93" data-uid="lnk21" id="link_ImageDansTableau_JFrame"><path codeLine="93" d="M1239.95,737.87 C1261.64,757.48 1283.4,777.77 1303.51,797.53 C1316.64,810.43 1318.6182,812.1641 1329.5182,824.4941" fill="none" id="ImageDansTableau-to-JFrame" style="stroke:#181818;stroke-width:1;"/><polygon fill="none" points="1341.44,837.98,1334.0135,820.5201,1325.0229,828.468,1341.44,837.98" style="stroke:#181818;stroke-width:1;"/></g><!--link EcouteurDeSouris to MouseAdapter--><g class="link" data-entity-1="EcouteurDeSouris" data-entity-2="MouseAdapter" data-source-line="94" data-uid="lnk23" id="link_EcouteurDeSouris_MouseAdapter"><path codeLine="94" d="M1319.17,88.01 C1365.64,112.41 1407.6426,134.4635 1446.9026,155.0735" fill="none" id="EcouteurDeSouris-to-MouseAdapter" style="stroke:#181818;stroke-width:1;"/><polygon fill="none" points="1462.84,163.44,1449.6914,149.761,1444.1137,160.3859,1462.84,163.44" style="stroke:#181818;stroke-width:1;"/></g><!--link SauvegardePartie to Sauvegarde--><g class="link" data-entity-1="SauvegardePartie" data-entity-2="Sauvegarde" data-source-line="96" data-uid="lnk24" id="link_SauvegardePartie_Sauvegarde"><path codeLine="96" d="M1100.29,986.64 C1102.6,961.16 1104.2241,946.1157 1101.9041,920.6657" fill="none" id="SauvegardePartie-to-Sauvegarde" style="stroke:#181818;stroke-width:1;"/><polygon fill="none" points="1100.27,902.74,1095.9289,921.2104,1107.8793,920.121,1100.27,902.74" style="stroke:#181818;stroke-width:1;"/></g><!--link Sauvegarde to SauvegardePartie--><g class="link" data-entity-1="Sauvegarde" data-entity-2="SauvegardePartie" data-source-line="121" data-uid="lnk42" id="link_Sauvegarde_SauvegardePartie"><path codeLine="121" d="M1077.41,902.74 C1075.22,928.19 1074.7109,955.1816 1076.8809,980.6616" fill="none" id="Sauvegarde-to-SauvegardePartie" style="stroke:#181818;stroke-width:1;"/><polygon fill="#181818" points="1077.39,986.64,1080.6119,977.333,1076.9657,981.658,1072.6407,978.0119,1077.39,986.64" style="stroke:#181818;stroke-width:1;"/></g><!--link Main to FenetreAccueil--><g class="link" data-entity-1="Main" data-entity-2="FenetreAccueil" data-source-line="100" data-uid="lnk25" id="link_Main_FenetreAccueil"><path codeLine="100" d="M1308.79,220.33 C1310.79,239.48 1312.7875,258.6924 1315.2075,281.8924" fill="none" id="Main-to-FenetreAccueil" style="stroke:#181818;stroke-width:1;"/><polygon fill="#181818" points="1315.83,287.86,1318.8747,278.4936,1315.3113,282.887,1310.9179,279.3236,1315.83,287.86" style="stroke:#181818;stroke-width:1;"/></g><!--link FenetreAccueil to ImageDansTableau--><g class="link" data-entity-1="FenetreAccueil" data-entity-2="ImageDansTableau" data-source-line="101" data-uid="lnk26" id="link_FenetreAccueil_ImageDansTableau"><path codeLine="101" d="M1251.9,418.02 C1234.03,436.29 1218.5413,452.482 1199.3413,473.172" fill="none" id="FenetreAccueil-to-ImageDansTableau" style="stroke:#181818;stroke-width:1;"/><polygon fill="#181818" points="1195.26,477.57,1204.314,473.6938,1198.6611,473.905,1198.4499,468.252,1195.26,477.57" style="stroke:#181818;stroke-width:1;"/></g><!--link ImageDansTableau to FenetreAccueil--><g class="link" data-entity-1="ImageDansTableau" data-entity-2="FenetreAccueil" data-source-line="104" data-uid="lnk28" id="link_ImageDansTableau_FenetreAccueil"><path codeLine="104" d="M1221.51,477.57 C1240.62,456.88 1255.2283,440.8136 1271.1483,422.5436" fill="none" id="ImageDansTableau-to-FenetreAccueil" style="stroke:#181818;stroke-width:1;"/><polygon fill="#181818" points="1275.09,418.02,1266.1617,422.1776,1271.8052,421.7896,1272.1931,427.4332,1275.09,418.02" style="stroke:#181818;stroke-width:1;"/></g><!--link FenetreAccueil to Son--><g class="link" data-entity-1="FenetreAccueil" data-entity-2="Son" data-source-line="102" data-uid="lnk27" id="link_FenetreAccueil_Son"><path codeLine="102" d="M1316.63,417.92 C1312.32,498.31 1315.37,637.82 1374.51,737.53 C1392.81,768.38 1417.1134,790.5036 1446.1334,810.1736" fill="none" id="FenetreAccueil-to-Son" style="stroke:#181818;stroke-width:1;"/><polygon fill="#181818" points="1451.1,813.54,1445.8944,805.1793,1446.9612,810.7347,1441.4058,811.8015,1451.1,813.54" style="stroke:#181818;stroke-width:1;"/></g><!--link ImageDansTableau to PanneauGrille--><g class="link" data-entity-1="ImageDansTableau" data-entity-2="PanneauGrille" data-source-line="105" data-uid="lnk29" id="link_ImageDansTableau_PanneauGrille"><path codeLine="105" d="M890.07,686.3 C804.27,720.13 702.8,760.44 611.51,797.53 C586.05,807.88 563.8371,817.0591 539.0371,827.4091" fill="none" id="ImageDansTableau-to-PanneauGrille" style="stroke:#181818;stroke-width:1;"/><polygon fill="#181818" points="533.5,829.72,543.3463,829.9451,538.1143,827.7943,540.2651,822.5623,533.5,829.72" style="stroke:#181818;stroke-width:1;"/></g><!--link ImageDansTableau to Score--><g class="link" data-entity-1="ImageDansTableau" data-entity-2="Score" data-source-line="106" data-uid="lnk30" id="link_ImageDansTableau_Score"><path codeLine="106" d="M911.46,737.9 C883.19,758.54 859.9155,775.5415 834.9655,793.7615" fill="none" id="ImageDansTableau-to-Score" style="stroke:#181818;stroke-width:1;"/><polygon fill="#181818" points="830.12,797.3,839.7473,795.2226,834.1579,794.3513,835.0293,788.7619,830.12,797.3" style="stroke:#181818;stroke-width:1;"/></g><!--link ImageDansTableau to Son--><g class="link" data-entity-1="ImageDansTableau" data-entity-2="Son" data-source-line="107" data-uid="lnk31" id="link_ImageDansTableau_Son"><path codeLine="107" d="M1286.82,722.59 C1295.83,727.66 1304.76,732.66 1313.51,737.53 C1359.22,762.97 1405.1238,787.8617 1447.4938,810.6117" fill="none" id="ImageDansTableau-to-Son" style="stroke:#181818;stroke-width:1;"/><polygon fill="#181818" points="1452.78,813.45,1446.7429,805.6684,1448.3748,811.0847,1442.9585,812.7166,1452.78,813.45" style="stroke:#181818;stroke-width:1;"/></g><!--link ImageDansTableau to Sauvegarde--><g class="link" data-entity-1="ImageDansTableau" data-entity-2="Sauvegarde" data-source-line="108" data-uid="lnk32" id="link_ImageDansTableau_Sauvegarde"><path codeLine="108" d="M1088.51,737.9 C1088.51,768.37 1088.51,792.62 1088.51,815.54" fill="none" id="ImageDansTableau-to-Sauvegarde" style="stroke:#181818;stroke-width:1;"/><polygon fill="#181818" points="1088.51,821.54,1092.51,812.54,1088.51,816.54,1084.51,812.54,1088.51,821.54" style="stroke:#181818;stroke-width:1;"/></g><!--link ImageDansTableau to Surbrillance--><g class="link" data-entity-1="ImageDansTableau" data-entity-2="Surbrillance" data-source-line="109" data-uid="lnk33" id="link_ImageDansTableau_Surbrillance"><path codeLine="109" d="M1286.71,704.67 C1315.76,716.77 1345.63,728.17 1374.51,737.53 C1500.13,778.25 1537.1,766.76 1665.51,797.53 C1705.89,807.21 1744.0977,817.3286 1782.8777,828.0686" fill="none" id="ImageDansTableau-to-Surbrillance" style="stroke:#181818;stroke-width:1;"/><polygon fill="#181818" points="1788.66,829.67,1781.0541,823.413,1783.8414,828.3355,1778.9189,831.1228,1788.66,829.67" style="stroke:#181818;stroke-width:1;"/></g><!--link ImageDansTableau to FinPartie--><g class="link" data-entity-1="ImageDansTableau" data-entity-2="FinPartie" data-source-line="110" data-uid="lnk34" id="link_ImageDansTableau_FinPartie"><path codeLine="110" d="M890.42,647.98 C730.78,681.73 501.44,734.75 305.51,797.53 C276.92,806.69 251.7143,816.3163 225.0043,827.3663" fill="none" id="ImageDansTableau-to-FinPartie" style="stroke:#181818;stroke-width:1;"/><polygon fill="#181818" points="219.46,829.66,229.3055,829.9157,224.0802,827.7486,226.2473,822.5233,219.46,829.66" style="stroke:#181818;stroke-width:1;"/></g><!--link EcouteurDeSouris to ImageDansTableau--><g class="link" data-entity-1="EcouteurDeSouris" data-entity-2="ImageDansTableau" data-source-line="112" data-uid="lnk35" id="link_EcouteurDeSouris_ImageDansTableau"><path codeLine="112" d="M1105.8,58.52 C982.44,70.87 814.78,96.7 773.51,147.59 C687.31,253.92 788.3057,379.2091 899.8557,473.3991" fill="none" id="EcouteurDeSouris-to-ImageDansTableau" style="stroke:#181818;stroke-width:1;"/><polygon fill="#181818" points="904.44,477.27,900.1441,468.4074,900.6197,474.0443,894.9829,474.5199,904.44,477.27" style="stroke:#181818;stroke-width:1;"/></g><!--link EcouteurDeSouris to Surbrillance--><g class="link" data-entity-1="EcouteurDeSouris" data-entity-2="Surbrillance" data-source-line="113" data-uid="lnk36" id="link_EcouteurDeSouris_Surbrillance"><path codeLine="113" d="M1381.1,52.49 C1536.53,60.34 1775.68,82.89 1835.51,147.59 C2018.35,345.31 1938.5335,713.2419 1909.0835,823.8719" fill="none" id="EcouteurDeSouris-to-Surbrillance" style="stroke:#181818;stroke-width:1;"/><polygon fill="#181818" points="1907.54,829.67,1913.7206,822.0019,1908.8262,824.8383,1905.9898,819.9439,1907.54,829.67" style="stroke:#181818;stroke-width:1;"/></g><!--link EcouteurDeSouris to CassageBlocks--><g class="link" data-entity-1="EcouteurDeSouris" data-entity-2="CassageBlocks" data-source-line="114" data-uid="lnk37" id="link_EcouteurDeSouris_CassageBlocks"><path codeLine="114" d="M1168.15,88.01 C1127.62,109.37 1083.6479,132.5425 1045.7579,152.5125" fill="none" id="EcouteurDeSouris-to-CassageBlocks" style="stroke:#181818;stroke-width:1;"/><polygon fill="#181818" points="1040.45,155.31,1050.2769,154.6523,1044.8732,152.9787,1046.5468,147.5751,1040.45,155.31" style="stroke:#181818;stroke-width:1;"/></g><!--link EcouteurDeSouris to FinPartie--><g class="link" data-entity-1="EcouteurDeSouris" data-entity-2="FinPartie" data-source-line="115" data-uid="lnk38" id="link_EcouteurDeSouris_FinPartie"><path codeLine="115" d="M1105.87,64.44 C976.92,81.45 795.1,110.86 733.51,147.59 C434.04,326.21 223.1535,711.1286 165.6835,824.4686" fill="none" id="EcouteurDeSouris-to-FinPartie" style="stroke:#181818;stroke-width:1;"/><polygon fill="#181818" points="162.97,829.82,170.6078,823.6019,165.2312,825.3605,163.4726,819.984,162.97,829.82" style="stroke:#181818;stroke-width:1;"/></g><!--link EcouteurDeSouris to FenetreFin--><g class="link" data-entity-1="EcouteurDeSouris" data-entity-2="FenetreFin" data-source-line="116" data-uid="lnk39" id="link_EcouteurDeSouris_FenetreFin"><path codeLine="116" d="M1381.01,86.38 C1445.13,104.43 1522.38,126.6 1591.51,147.59 C1597.26,149.34 1597.4314,149.3658 1603.3714,151.2158" fill="none" id="EcouteurDeSouris-to-FenetreFin" style="stroke:#181818;stroke-width:1;"/><polygon fill="#181818" points="1609.1,153,1601.6965,146.5047,1604.3262,151.5132,1599.3177,154.1428,1609.1,153" style="stroke:#181818;stroke-width:1;"/></g><!--link FenetreFin to FenetreAccueil--><g class="link" data-entity-1="FenetreFin" data-entity-2="FenetreAccueil" data-source-line="118" data-uid="lnk40" id="link_FenetreFin_FenetreAccueil"><path codeLine="118" d="M1618.36,228.57 C1556.77,254.25 1482.468,285.2311 1421.258,310.7511" fill="none" id="FenetreFin-to-FenetreAccueil" style="stroke:#181818;stroke-width:1;"/><polygon fill="#181818" points="1415.72,313.06,1425.5662,313.2886,1420.335,311.1359,1422.4877,305.9047,1415.72,313.06" style="stroke:#181818;stroke-width:1;"/></g><!--link FenetreFin to Son--><g class="link" data-entity-1="FenetreFin" data-entity-2="Son" data-source-line="119" data-uid="lnk41" id="link_FenetreFin_Son"><path codeLine="119" d="M1720.65,228.63 C1735.55,322.63 1762.05,563.77 1678.51,737.53 C1664.2,767.31 1643.8603,789.4142 1619.1903,809.7442" fill="none" id="FenetreFin-to-Son" style="stroke:#181818;stroke-width:1;"/><polygon fill="#181818" points="1614.56,813.56,1624.0493,810.9233,1618.4186,810.3802,1618.9617,804.7495,1614.56,813.56" style="stroke:#181818;stroke-width:1;"/></g><!--SRC=[XLNBJbin4DtxAxpZHYLIrraWGNYB50I83KALuqnlfZZshHyHjEM3-0v-h7Fjt5TYr4YGs3DpPkRCmtjylFtXT_vLWMFk6NKbh5XngOHpXzvRd0SF5zBeE_mD_2jZUndpQQqDZbSMjSHAr5WiGl2PGCt_C4wVBolwNGXRkWav9DNoyMaquMk32_R6c9WxRuNqoJS_1GtUGcChBO0zCi4RNNXuyT1W4CBbKV1qNuCCR0-b381g0p6Udf_CBhvzlxe-kswCas1b5d2eG7Y3bd3dnj11RsJ1uQz0K1xNsxAvrxCaxcA8mGxz5wCkiekLAE5OQ7SlvWGKclHAYqh1VJ-nnwSamjhareII9D6yT_q0rcUkZnI4uNKbj2PtPz7DXD_qZqb3YJceEsbg1YwlwaEwTy7EQpMXPSr2W0Y0sZy-DH6wP1MD_y_Q2dJeQ9lHAQ5iKqEq9Mg8J0isnTgMgL1OQd0nadqkZJAwEJOz5QrDM5kqnr05TCSeb2a35ACkfBOo0qgQibJKiNvgLfNHe7rHJlYP5TKIfUirRhAFsJUjjgOH23P6au2YjCl8FqI5Ef1MHVoaxWPxO-Z65LvWG_GW7miEVB7htJHJDfOAgmcD95R9Wc315d89AzIzeUaWdJTL1h5NztO8bs3hlpDhGWMko7RjFd_PLEMr2R_fbcv0KTy8wx4ZMWLt35E2tO0ELiHEiJO3Tjhkbl6c1risEuqYYkY7K2cUNeuYhA4KTj760Tf2YRI8YBBjGFPvvsH0e5pIKeDDavsYN29P_qZV4yfL0QbtlbBckIY6d6px7mnRdMYBS2BhrWaKmPq95bsxS4rmC3DhM1HaCgjF9slOYZugKRl8vy_KMZzJ-XVNYv7FhHDPx_uiMxqEQdjWrCldBV-Qd7-yM_JaXnwHhKq-7lyzQ8hFUaqmk1zESXHTqXqjj9tjcuIdzE81so4n2YCRXmjHqMWojbEggDFTvXEw1IKy6ktuOYzuLEZYaHUBZ_SAzA8co8qOYs_bU7omzNxjad2myuxaT6Wdi5pAE_XPdU4JaLL92pyl8jzvGSTLNjvhca-2RtO7ovKiGqrMQ-0dgp5ezhnA5qfUt3Oe6pRhPnLkfB5olUKq92wv_0S0]--></g></svg>